<?xml version="1.0" encoding="utf-8"?>
<!-- Generator: Adobe Illustrator 25.3.1, SVG Export Plug-In . SVG Version: 6.00 Build 0)  -->
<svg version="1.1" id="Layer_1" xmlns="http://www.w3.org/2000/svg" xmlns:xlink="http://www.w3.org/1999/xlink" x="0px" y="0px"
	 viewBox="0 0 1024 1024" style="enable-background:new 0 0 1024 1024;" xml:space="preserve">
<style type="text/css">
	.st0{fill:#FFFFFF;}
	.st1{fill:#C1AA3C;}
	.st2{fill:#C3A646;}
</style>
<circle class="st0" cx="512" cy="512" r="505.7"/>
<g>
	<path class="st1" d="M337.7,511c-0.1-23.4,8.7-44.5,25.4-62.3c10.5-11.3,22.8-20,37.4-25.3c9-3.3,18.3-5.1,27.9-5.4
		c11-0.4,21.9,0.5,32.5,3.6c12.4,3.6,23.4,9.7,33.3,18c11.1,9.4,20.1,20.5,26.3,33.8c4.5,9.7,7.1,20,8,30.7
		c1.1,14.1-0.5,27.7-5.3,41c-4.4,12.1-11.3,22.7-20,32.1c-9.8,10.6-21.1,19-34.6,24.4c-8.7,3.5-17.8,5.4-27.3,6
		c-7.2,0.4-14.4,0.4-21.5-0.5c-13-1.5-25-5.8-36-12.9c-16-10.4-28.4-24.2-36.9-41.3c-4.7-9.5-7.5-19.7-8.6-30.3
		C337.9,519,337.8,515.6,337.7,511z M434.8,600.6c8-0.2,16.1-1,25.4-4.1c22.8-7.7,39.4-22.7,50.8-43.5c5.7-10.3,8.5-21.5,9.4-33.2
		c0.9-11.8-0.2-23.3-3.9-34.5c-6.2-19-18.1-33.8-34.2-45.3c-11.6-8.3-24.6-13-38.9-14.5c-11.8-1.2-23.4-0.5-34.9,2.8
		c-13.2,3.8-24.6,10.7-34.5,20c-11,10.3-19.3,22.4-24,36.7c-3.4,10.5-4.6,21.2-4.1,32.2c0.4,8.5,1.9,16.8,4.7,24.9
		c3.9,11.1,10,20.8,17.9,29.5C385.9,590.6,407.4,600.5,434.8,600.6z"/>
	<path class="st1" d="M738.4,416.5c30.7,62.9,61.2,125.3,91.9,188c-2.9,0-5.4,0-7.9,0c-0.6,0-0.9-0.3-1.1-0.8
		c-0.3-0.6-0.6-1.1-0.9-1.7c-10.8-21.7-21.6-43.4-32.3-65.1c-0.9-1.8-1.8-2.5-3.9-2.5c-30.9,0.1-61.9,0.1-92.8,0
		c-1.9,0-2.9,0.5-3.8,2.3c-10.5,21.6-21,43.1-31.6,64.6c-0.3,0.6-0.7,1.3-0.9,1.9c-0.4,0.8-0.9,1.2-1.8,1.2c-2-0.1-4,0-6.4,0
		C677.3,541.9,707.7,479.5,738.4,416.5z M692,527.2c30.8,0,61.1,0,91.8,0c-15.4-31.3-30.7-62.3-46.2-93.8
		C722.3,465,707.2,496,692,527.2z"/>
	<path class="st1" d="M566.5,546.5c-0.7,1.5-0.5,2.4-0.5,3.3c0,17.2,0,34.4,0,51.6c0,0.6,0,1.3,0,1.9c0,0.9-0.4,1.3-1.3,1.2
		c-1.8,0-3.5,0-5.3,0c-1.1,0-1.4-0.5-1.3-1.5c0-0.6,0-1.1,0-1.7c0-59.1,0-118.2,0-177.3c0-3.6-0.5-3.2,3.1-3.2
		c5.5,0,11-0.1,16.5,0.7c10.3,1.6,19.4,5.8,27.5,12.2c6.8,5.4,12.4,11.8,16.6,19.4c3.6,6.6,5.7,13.7,6.3,21.2
		c1.7,19.7-5.9,35.5-20.5,48.3c-5.1,4.5-10.6,8.2-16.8,10.9c-6.1,2.6-12.4,4.2-19.1,4.2c-0.6,0-1.3,0.1-1.9,0.1
		c-0.1,0-0.1,0.1-0.3,0.3c0.1,0.8,0.8,1.2,1.3,1.7c9.6,10.2,19.3,20.3,28.9,30.5c10.1,10.7,20.2,21.4,30.4,32
		c0.5,0.5,1.2,0.9,1.2,1.9c-3.1,0.3-6.2,0.1-9.2,0.1c-0.9,0-1.3-0.8-1.9-1.3c-5.5-5.8-11.1-11.5-16.6-17.3
		c-9.4-9.9-18.9-19.8-28.3-29.7c-2.4-2.5-4.7-5-7.1-7.5C567.7,548.1,567.3,547.5,566.5,546.5z M565.9,479.3c0,16.1,0,32.1,0,48.2
		c0,0.6,0,1.1,0,1.7c-0.1,1.1,0.3,1.6,1.5,1.6c6.5,0.2,12.9-0.4,19.1-2.7c9.2-3.4,16.8-9.2,22.9-16.9c11.5-14.4,14-30.5,8.4-47.9
		c-3.1-9.6-9.3-17.2-17-23.6c-9.5-7.9-20.3-11.9-32.7-11.7c-2.1,0-2.1,0-2.2,2.1c0,0.5,0,1,0,1.4
		C565.9,447.5,565.9,463.4,565.9,479.3z"/>
	<path class="st1" d="M193.9,512.7c0-29.6,0-59.2,0-88.8c0-3.3-0.4-3,2.9-3c19.8,0,39.7,0,59.5,0c0.3,0,0.6,0,1,0
		c2.1,0,2.1,0,2.1,2.2c0,1.3,0,2.6,0,3.8c0,0.8-0.4,1.2-1.2,1.1c-0.6,0-1.3,0-1.9,0c-17,0-34.1,0-51.1,0c-0.6,0-1.3,0-1.9,0
		c-0.9,0-1.3,0.4-1.3,1.3c0,0.5,0,1,0,1.4c0,31.3,0,62.5,0,93.8c0,0.2,0,0.5,0,0.7c0,2.1,0,2.1,2.1,2.1c14.2,0,28.5,0,42.7,0
		c3.2,0,3-0.4,3,2.9c0,1.3,0.6,3-0.4,3.9c-0.9,0.8-2.5,0.3-3.7,0.3c-13.6,0-27.2,0-40.8,0c-0.6,0-1.1,0-1.7,0
		c-0.9,0-1.3,0.4-1.2,1.3c0,0.6,0,1.3,0,1.9c0,21.1,0,42.2,0,63.3c0,0.6,0,1.3,0,1.9c0.1,1.1-0.3,1.6-1.5,1.6
		c-1.8-0.1-3.5-0.1-5.3,0c-1.1,0-1.4-0.5-1.4-1.4c0-0.6,0-1.3,0-1.9C193.9,571.7,193.9,542.2,193.9,512.7z"/>
	<path class="st1" d="M283.8,512.5c0-29.6,0-59.2,0-88.8c0-3.2-0.2-2.9,2.8-2.9c1.4,0,2.7,0,4.1,0c0.9,0,1.3,0.4,1.3,1.3
		c0,0.7,0,1.4,0,2.2c0,56.5,0,113.1,0,169.6c0,3.9-0.4,3.5,3.4,3.5c16.6,0,33.3,0,49.9,0c0.6,0,1.1,0,1.7,0c1.7,0,1.8,0.1,1.8,1.7
		c0,1.4,0,2.7,0,4.1c0,1.1-0.4,1.4-1.4,1.4c-0.4,0-0.8,0-1.2,0c-19.9,0-39.8,0-59.7,0c-2.8,0-2.7,0.3-2.7-2.8
		C283.8,572,283.8,542.3,283.8,512.5z"/>
	<path class="st2" d="M348,788.7c-1,0.6-1.8,0.3-2.6,0.4c-1.2,0.2-1.8-0.4-2.4-1.5c-2.7-5.6-5.4-11.2-8.2-16.8
		c-4-8.2-8-16.4-12-24.6c-0.4-0.8-0.6-1.6-1.4-2.3c-0.8,0.7-1,1.5-1.4,2.3c-6.6,13.4-13.1,26.9-19.7,40.3c-1.4,2.8-1.4,2.8-4.6,2.5
		c-0.3-0.9,0.3-1.5,0.6-2.2c6.6-13.7,13.3-27.5,20-41.2c0.7-1.5,1.4-3.1,2.2-4.5c0.8-1.3,0.6-2.5,0-3.8c-4-7.8-7.9-15.7-11.8-23.6
		c-2-4.1-4.1-8.2-6.1-12.2c-0.2-0.4-0.4-0.9-0.7-1.5c1.3-0.3,2.4-0.2,3.6-0.2c1,0,1.2,0.9,1.6,1.6c3.2,6.5,6.3,12.9,9.5,19.4
		c2.1,4.2,4.2,8.5,6.3,12.7c0.2,0.4,0.3,0.9,0.9,1.2c0.7-0.7,1-1.6,1.4-2.4c4.9-9.9,9.7-19.8,14.5-29.7c1.4-2.9,1.4-2.9,4.7-2.5
		c0.2,0.8-0.3,1.4-0.6,2c-5.6,11.6-11.2,23.2-17,34.7c-0.9,1.9-0.8,3.3,0.1,5.1c7.4,15,14.7,30,22,45
		C347.4,787.3,347.6,788,348,788.7z"/>
	<path class="st2" d="M359.5,744.3c0-14,0-28,0-42c0-2.6,0-2.6,2.6-2.6c8.9,0,17.8,0,26.6,0c0.3,0,0.6,0,1,0c0.6,0,1.4-0.2,1.6,0.6
		c0.2,0.8,0.3,1.7-0.1,2.6c-0.1,0.3-0.5,0.4-0.8,0.4c-0.6,0-1.1,0-1.7,0c-7.7,0-15.4,0-23,0c-2.1,0-2.1,0-2.1,2.1
		c0,14.6,0,29.3,0,43.9c0,2.1,0,2.1,2.1,2.1c6.3,0,12.6,0,19,0c1.9,0,2.6,1,2.1,2.9c-0.1,0.4-0.4,0.7-0.9,0.7c-0.6,0-1.1,0-1.7,0
		c-6.2,0-12.3,0-18.5,0c-2.1,0-2.1,0-2.2,2.1c0,0.6,0,1.1,0,1.7c0,9.3,0,18.6,0,27.8c0,2.3-1.1,3-3.3,2.4c-0.4-0.1-0.7-0.4-0.7-0.8
		c0-0.6,0-1.3,0-1.9C359.5,772.3,359.5,758.3,359.5,744.3z"/>
	<path class="st2" d="M403.1,744.4c0-13.7,0-27.5,0-41.2c0-0.4,0-0.8,0-1.2c0.1-0.7-0.3-1.6,0.4-2c0.9-0.5,2-0.3,3-0.1
		c0.5,0.1,0.6,0.5,0.6,0.9c0,0.7,0,1.4,0,2.2c0,26.5,0,53.1,0,79.6c0,3.3-0.3,3,2.9,3c7.1,0,14.2,0,21.3,0c0.5,0,1,0,1.4,0
		c1.6,0,2.5,1.6,1.7,3.1c-0.2,0.3-0.4,0.4-0.8,0.5c-0.6,0-1.1,0-1.7,0c-8.9,0-17.7,0-26.6,0c-0.4,0-0.8,0-1.2,0
		c-0.9,0-1.3-0.4-1.3-1.3c0-0.6,0-1.1,0-1.7C403.1,772.2,403.1,758.3,403.1,744.4z"/>
</g>
<path class="st2" d="M893.1,523.9c-3.2,26.2-3,55.7-12.4,80.5c2.9-21.7,5.2-44.6,4.2-67.1c2.9-133.7-69.9-266.8-183.6-337.2
	C595,134.6,452.8,130.1,343,188.8C140,293.1,83.3,564.4,227.3,741.5c143.5,180.6,426.9,180.7,569.8-1.5c7-9.8,16.2-18.7,20.8-30
	c1-5.2-14.1-2.6-17.7-3.5c-41.5,0.2-82.7-5.3-123.4-13.1c-102.8-23.4-132.1-26-190.4,69c-2.4,8.5-32.1,55.3-18.5,56.1
	c6.1,0.7,14.5,3.2,18.8-2.7c12-19.8,21.2-41.4,34.6-60.4c2-4.4,35.7-52.9,22.7-27.6c-14.9,25.3-28,51.7-39.5,78.7
	c-4.8,10.7-2.2,14,9.8,12.8c7.3,0.8,11.9-4.3,14.5-10.5c10.4-20.6,23.9-39.3,36.6-58.5c4.5-5.2,8.2-13.6,13.7-17.1
	c-1.1,7.9-9.3,15-12.3,22.8c-3.7,10.2-34.7,57.6-25.9,62.5c7.1,0.9,17.1,0.1,21.2-6.6c12.9-22.5,27-45.8,43.6-65.5
	c-9.4,22.8-29.6,42.6-34.4,67.5c1.9,5.5,18.3-1.9,23.5-1.6c8.3-2.3,10.6-12.1,15.4-18.3c8.7-12.4,16.3-26.9,27.6-36.9
	c1,5.2-34.5,51.3-21.6,50.4c9.2-2.5,19.6-4.2,27.6-9.5c6.9-9.7,13.4-21.7,22.1-29.3c-0.2,6.9-8,13-8.9,20.4c-1.5,7.2,8.7-0.2,12,0.7
	c-52.7,36-119.4,51.4-183.1,49.8c-7.2-1.2-52.5,1-47.1-9.3c18.8-67.2,60.7-155.6,136.5-169.2c60.7-7.2,118.9,18.9,178.5,26.7
	c24.4,2.9,49.2,3.4,73.7,1c6.8-0.4,13.4-2.1,19.9-3.8c4.5,0.5-0.5,6.4-0.8,8.8c-96.9,178.9-326.2,252-507.7,157.4
	C149.6,756.7,73.1,514.6,176.7,329.3c93.8-175.1,316.1-249,495.7-163.3C808.3,227.6,899.3,374.7,893.1,523.9z"/>
</svg>
