<?xml version="1.0" encoding="utf-8"?>
<!-- Generator: Adobe Illustrator 25.3.1, SVG Export Plug-In . SVG Version: 6.00 Build 0)  -->
<svg version="1.1" id="Layer_1" xmlns="http://www.w3.org/2000/svg" xmlns:xlink="http://www.w3.org/1999/xlink" x="0px" y="0px"
	 viewBox="0 0 150 58" style="enable-background:new 0 0 150 58;" xml:space="preserve">
<style type="text/css">
	.st0{fill:#C1AA3C;}
	.st1{fill:#C3A646;}
</style>
<g>
	<path class="st0" d="M127.8,7.2c7.2,14.7,14.3,29.2,21.4,43.8c-0.7,0-1.3,0-1.8,0c-0.1,0-0.2-0.1-0.3-0.2c-0.1-0.1-0.1-0.3-0.2-0.4
		c-2.5-5.1-5-10.1-7.5-15.2c-0.2-0.4-0.4-0.6-0.9-0.6c-7.2,0-14.4,0-21.6,0c-0.4,0-0.7,0.1-0.9,0.5c-2.4,5-4.9,10-7.4,15.1
		c-0.1,0.2-0.2,0.3-0.2,0.5c-0.1,0.2-0.2,0.3-0.4,0.3c-0.5,0-0.9,0-1.5,0C113.5,36.4,120.6,21.9,127.8,7.2z M116.9,33
		c7.2,0,14.3,0,21.4,0c-3.6-7.3-7.2-14.5-10.8-21.9C124,18.5,120.5,25.7,116.9,33z"/>
	<path class="st0" d="M87.7,37c-0.2,0.4-0.1,0.6-0.1,0.8c0,4,0,8,0,12c0,0.1,0,0.3,0,0.4c0,0.2-0.1,0.3-0.3,0.3c-0.4,0-0.8,0-1.2,0
		c-0.3,0-0.3-0.1-0.3-0.3c0-0.1,0-0.3,0-0.4c0-13.8,0-27.6,0-41.3c0-0.8-0.1-0.8,0.7-0.8c1.3,0,2.6,0,3.8,0.2
		c2.4,0.4,4.5,1.3,6.4,2.9c1.6,1.3,2.9,2.7,3.9,4.5c0.8,1.5,1.3,3.2,1.5,4.9c0.4,4.6-1.4,8.3-4.8,11.3c-1.2,1-2.5,1.9-3.9,2.5
		c-1.4,0.6-2.9,1-4.4,1c-0.1,0-0.3,0-0.4,0c0,0,0,0-0.1,0.1c0,0.2,0.2,0.3,0.3,0.4c2.2,2.4,4.5,4.7,6.7,7.1c2.4,2.5,4.7,5,7.1,7.5
		c0.1,0.1,0.3,0.2,0.3,0.4c-0.7,0.1-1.4,0-2.2,0c-0.2,0-0.3-0.2-0.4-0.3c-1.3-1.3-2.6-2.7-3.9-4c-2.2-2.3-4.4-4.6-6.6-6.9
		c-0.6-0.6-1.1-1.2-1.7-1.7C88,37.4,87.9,37.2,87.7,37z M87.6,21.4c0,3.7,0,7.5,0,11.2c0,0.1,0,0.3,0,0.4c0,0.3,0.1,0.4,0.3,0.4
		c1.5,0,3-0.1,4.5-0.6c2.2-0.8,3.9-2.2,5.3-3.9c2.7-3.4,3.3-7.1,2-11.2c-0.7-2.2-2.2-4-4-5.5c-2.2-1.8-4.7-2.8-7.6-2.7
		c-0.5,0-0.5,0-0.5,0.5c0,0.1,0,0.2,0,0.3C87.6,13.9,87.6,17.6,87.6,21.4z"/>
	<path class="st0" d="M0.8,29.1c0-6.9,0-13.8,0-20.7c0-0.8-0.1-0.7,0.7-0.7c4.6,0,9.2,0,13.9,0c0.1,0,0.1,0,0.2,0
		c0.5,0,0.5,0,0.5,0.5c0,0.3,0,0.6,0,0.9c0,0.2-0.1,0.3-0.3,0.3c-0.1,0-0.3,0-0.4,0c-4,0-7.9,0-11.9,0c-0.1,0-0.3,0-0.4,0
		c-0.2,0-0.3,0.1-0.3,0.3c0,0.1,0,0.2,0,0.3c0,7.3,0,14.6,0,21.9c0,0.1,0,0.1,0,0.2c0,0.5,0,0.5,0.5,0.5c3.3,0,6.6,0,10,0
		c0.7,0,0.7-0.1,0.7,0.7c0,0.3,0.1,0.7-0.1,0.9c-0.2,0.2-0.6,0.1-0.9,0.1c-3.2,0-6.3,0-9.5,0c-0.1,0-0.3,0-0.4,0
		c-0.2,0-0.3,0.1-0.3,0.3c0,0.1,0,0.3,0,0.4c0,4.9,0,9.8,0,14.8c0,0.1,0,0.3,0,0.4c0,0.3-0.1,0.4-0.3,0.4c-0.4,0-0.8,0-1.2,0
		c-0.2,0-0.3-0.1-0.3-0.3c0-0.1,0-0.3,0-0.4C0.8,42.9,0.8,36,0.8,29.1z"/>
	<path class="st0" d="M21.8,29.1c0-6.9,0-13.8,0-20.7c0-0.7,0-0.7,0.7-0.7c0.3,0,0.6,0,1,0c0.2,0,0.3,0.1,0.3,0.3c0,0.2,0,0.3,0,0.5
		c0,13.2,0,26.4,0,39.5c0,0.9-0.1,0.8,0.8,0.8c3.9,0,7.8,0,11.6,0c0.1,0,0.3,0,0.4,0c0.4,0,0.4,0,0.4,0.4c0,0.3,0,0.6,0,1
		c0,0.2-0.1,0.3-0.3,0.3c-0.1,0-0.2,0-0.3,0c-4.6,0-9.3,0-13.9,0c-0.7,0-0.6,0.1-0.6-0.6C21.8,43,21.8,36,21.8,29.1z"/>
	<path class="st1" d="M54.2,35.2c-0.1,0.1-0.2,0-0.4,0.1c-0.2,0-0.3-0.1-0.3-0.2c-0.4-0.8-0.7-1.5-1.1-2.3c-0.5-1.1-1.1-2.3-1.6-3.4
		c-0.1-0.1-0.1-0.2-0.2-0.3c-0.1,0.1-0.1,0.2-0.2,0.3c-0.9,1.8-1.8,3.7-2.7,5.5c-0.2,0.4-0.2,0.4-0.6,0.3c0-0.1,0-0.2,0.1-0.3
		c0.9-1.9,1.8-3.8,2.8-5.7c0.1-0.2,0.2-0.4,0.3-0.6c0.1-0.2,0.1-0.3,0-0.5c-0.5-1.1-1.1-2.2-1.6-3.2c-0.3-0.6-0.6-1.1-0.8-1.7
		c0-0.1-0.1-0.1-0.1-0.2c0.2,0,0.3,0,0.5,0c0.1,0,0.2,0.1,0.2,0.2c0.4,0.9,0.9,1.8,1.3,2.7c0.3,0.6,0.6,1.2,0.9,1.7
		c0,0.1,0,0.1,0.1,0.2c0.1-0.1,0.1-0.2,0.2-0.3c0.7-1.4,1.3-2.7,2-4.1c0.2-0.4,0.2-0.4,0.7-0.3c0,0.1,0,0.2-0.1,0.3
		c-0.8,1.6-1.5,3.2-2.3,4.8c-0.1,0.3-0.1,0.5,0,0.7c1,2.1,2,4.1,3,6.2C54.2,35,54.2,35.1,54.2,35.2z"/>
	<path class="st1" d="M55.8,29.1c0-1.9,0-3.9,0-5.8c0-0.4,0-0.4,0.4-0.4c1.2,0,3.8,0,3.8,0c0.1,0,0.2,0,0.2,0.1c0,0.1,0,0.2,0,0.4
		c0,0-0.1,0-0.1,0c-0.1,0-2.3,0-3.4,0c-0.3,0-0.3,0-0.3,0.3c0,2,0,4,0,6c0,0.3,0,0.3,0.3,0.3c0.9,0,1.7,0,2.6,0
		c0.3,0,0.4,0.1,0.3,0.4c0,0.1-0.1,0.1-0.1,0.1c-0.1,0-1.9,0-2.8,0c-0.3,0-0.3,0-0.3,0.3c0,0.1,0,0.2,0,0.2c0,1.3,0,2.6,0,3.8
		c0,0.3-0.1,0.4-0.5,0.3c-0.1,0-0.1-0.1-0.1-0.1c0-0.1,0-0.2,0-0.3C55.8,33,55.8,31,55.8,29.1z"/>
	<path class="st1" d="M61.8,29.1c0-1.9,0-3.8,0-5.7c0-0.1,0-0.1,0-0.2c0-0.1,0-0.2,0.1-0.3c0.1-0.1,0.3,0,0.4,0
		c0.1,0,0.1,0.1,0.1,0.1c0,0.1,0,0.2,0,0.3c0,3.7,0,7.3,0,11c0,0.5,0,0.4,0.4,0.4c1,0,2,0,2.9,0c0.1,0,0.1,0,0.2,0
		c0.2,0,0.3,0.2,0.2,0.4c0,0-0.1,0.1-0.1,0.1c-0.1,0-0.2,0-0.2,0c-1.2,0-2.4,0-3.7,0c-0.1,0-0.1,0-0.2,0c-0.1,0-0.2-0.1-0.2-0.2
		c0-0.1,0-0.2,0-0.2C61.8,33,61.8,31.1,61.8,29.1z"/>
	<path class="st1" d="M78.4,29.7c-0.2,1.5-0.2,3.2-0.7,4.7c0.2-1.3,0.3-2.6,0.2-3.9c0.2-7.7-4-15.4-10.6-19.5
		C61.2,7.2,53,6.9,46.6,10.3c-11.7,6-15,21.7-6.7,32c8.3,10.4,24.7,10.5,33-0.1c0.4-0.6,0.9-1.1,1.2-1.7c0.1-0.3-0.8-0.1-1-0.2
		c-2.4,0-4.8-0.3-7.1-0.8c-5.9-1.4-7.6-1.5-11,4c-0.1,0.5-1.9,3.2-1.1,3.2c0.4,0,0.8,0.2,1.1-0.2c0.7-1.1,1.2-2.4,2-3.5
		c0.1-0.3,2.1-3.1,1.3-1.6c-0.9,1.5-1.6,3-2.3,4.6c-0.3,0.6-0.1,0.8,0.6,0.7c0.4,0,0.7-0.2,0.8-0.6c0.6-1.2,1.4-2.3,2.1-3.4
		c0.3-0.3,0.5-0.8,0.8-1c-0.1,0.5-0.5,0.9-0.7,1.3c-0.2,0.6-2,3.3-1.5,3.6c0.4,0.1,1,0,1.2-0.4c0.7-1.3,1.6-2.6,2.5-3.8
		c-0.5,1.3-1.7,2.5-2,3.9c0.1,0.3,1.1-0.1,1.4-0.1c0.5-0.1,0.6-0.7,0.9-1.1c0.5-0.7,0.9-1.6,1.6-2.1c0.1,0.3-2,3-1.3,2.9
		c0.5-0.1,1.1-0.2,1.6-0.6c0.4-0.6,0.8-1.3,1.3-1.7c0,0.4-0.5,0.8-0.5,1.2c-0.1,0.4,0.5,0,0.7,0c-3,2.1-6.9,3-10.6,2.9
		c-0.4-0.1-3,0.1-2.7-0.5c1.1-3.9,3.5-9,7.9-9.8c3.5-0.4,6.9,1.1,10.3,1.5c1.4,0.2,2.8,0.2,4.3,0.1c0.4,0,0.8-0.1,1.2-0.2
		c0.3,0,0,0.4,0,0.5c-5.6,10.3-18.9,14.6-29.4,9.1C35.4,43.2,31,29.2,37,18.4C42.4,8.3,55.3,4,65.7,9C73.5,12.6,78.8,21.1,78.4,29.7
		z"/>
</g>
</svg>
